# AST/ASF file generated using VICON BodyLanguage
# -----------------------------------------------
:version 1.10
:name VICON
:units
  mass 1.0
  length 0.45
  angle deg
:documentation
   .ast/.asf automatically generated from VICON data using
   VICON BodyBuilder and BodyLanguage model FoxedUp or BRILLIANT.MOD
:root
   order TX TY TZ RX RY RZ
   axis XYZ
   position 0 0 0  
   orientation 0 0 0 
:bonedata
  begin
     id 1 
     name lhipjoint
     direction 0.560651 -0.75055 0.34978 
     length 2.44936 
     axis 0 0 0  XYZ
  end
  begin
     id 2 
     name lfemur
     direction 0.34202 -0.939693 0  
     length 7.42139  
     axis 0 0 20  XYZ
    dof rx ry rz
    limits (-160.0 20.0)
           (-70.0 70.0)
           (-60.0 70.0)
  end
  begin
     id 3 
     name ltibia
     direction 0.34202 -0.939693 0   
     length 7.75674   
     axis 0 0 20   XYZ
    dof rx
    limits (-10.0 170.0)
  end
  begin
     id 4 
     name lfoot
     direction 0.0925879 -0.254383 0.962661   
     length 2.38688   
     axis -90 7.62852e-016 20   XYZ
    dof rx rz
    limits (-45.0 90.0)
           (-70.0 20.0)
  end
  begin
     id 5 
     name ltoes
     direction 1.53567e-011 -4.21973e-011 1   
     length 1.19228   
     axis -90 7.62852e-016 20   XYZ
    dof rx
    limits (-90.0 20.0)
  end
  begin
     id 6 
     name rhipjoint
     direction -0.540087 -0.762838 0.355506   
     length 2.4099  
     axis 0 0 0  XYZ 
  end
  begin
     id 7 
     name rfemur
     direction -0.34202 -0.939693 0   
     length 7.70794   
     axis 0 0 -20   XYZ
    dof rx ry rz
    limits (-160.0 20.0)
           (-70.0 70.0)
           (-70.0 60.0)
  end
  begin
     id 8 
     name rtibia
     direction -0.34202 -0.939693 0   
     length 7.66106   
     axis 0 0 -20   XYZ
    dof rx
    limits (-10.0 170.0)
 end
 begin
     id 9 
     name rfoot
     direction -0.0830975 -0.228308 0.970036   
     length 2.4989  
     axis -90 -7.62852e-016 -20   XYZ
    dof rx rz
    limits (-45.0 90.0)
           (-20.0 70.0)
  end
  begin
     id 10 
     name rtoes
     direction -1.53517e-011 -4.21842e-011 1   
     length 1.2498   
     axis -90 -7.62852e-016 -20   XYZ
    dof rx
    limits (-90.0 20.0)
  end
  begin
     id 11 
     name lowerback
     direction 0.0266356 0.99402 -0.105896   
     length 2.1545   
     axis 0 0 0   XYZ
    dof rx ry rz
    limits (-20.0 45.0)
           (-30.0 30.0)
           (-30.0 30.0)
  end
  begin
     id 12 
     name upperback
     direction 0.0130547 0.999192 0.0380027   
     length 2.1434   
     axis 0 0 0   XYZ
    dof rx ry rz
    limits (-20.0 45.0)
           (-30.0 30.0)
           (-30.0 30.0)
  end
  begin
     id 13 
     name thorax
     direction 0.000590299 0.996288 0.0860764   
     length 2.19049   
     axis 0 0 0   XYZ
    dof rx ry rz
    limits (-20.0 45.0)
           (-30.0 30.0)
           (-30.0 30.0)
  end
  begin
     id 14 
     name lowerneck
     direction -0.0432125 0.978219 0.203028   
     length 1.62441   
     axis 0 0 0   XYZ
    dof rx ry rz
    limits (-20.0 45.0)
           (-30.0 30.0)
           (-30.0 30.0)
  end
  begin
     id 15 
     name upperneck
     direction -0.0192309 0.991699 -0.127138   
     length 1.66666   
     axis 0 0 0   XYZ
    dof rx ry rz
    limits (-20.0 45.0)
           (-30.0 30.0)
           (-30.0 30.0)
  end
  begin
     id 16
     name head
     direction -0.00434499 0.997882 -0.0649107  
     length 1.67142  
     axis 0 0 0   XYZ
    dof rx ry rz
    limits (-20.0 45.0)
           (-30.0 30.0)
           (-30.0 30.0)
  end
  begin
     id 17 
     name lclavicle
     direction 0.970351 0.240904 -0.0196058  
     length 4.04862  
     axis 0 0 0   XYZ
    dof ry rz
    limits (-20.0 10.0)
           (0.0 20.0)
  end
  begin
     id 18 
     name lhumerus
     direction 1 -4.4896e-011 -1.40911e-018   
     length 5.58345   
     axis 180 -30 -90   XYZ
    dof rx ry rz
    limits (-60.0 90.0)
           (-90.0 90.0)
           (-90.0 90.0)
  end
  begin
     id 19
     name lradius
     direction 1 -4.48968e-011 5.88912e-028   
     length 3.71087   
     axis 180 -30 -90   XYZ
    dof rx
    limits (-10.0 170.0)
  end
  begin
     id 20
     name lwrist
     direction 1 -4.48955e-011 -8.83775e-028   
     length 1.85544   
     axis 5.52448e-016 90 90   XYZ
    dof ry
    limits (-180.0 0.0)
 end
  begin
     id 21 
     name lhand
     direction 1 -4.49035e-011 -1.76755e-027   
     length 0.562322   
     axis 1.12785e-015 90 90   XYZ
    dof rx rz
    limits (-90.0 90.0)
           (-45.0 45.0)
  end
  begin
     id 22 
     name lfingers
     direction 1 -4.48824e-011 -3.5351e-027   
     length 0.453359   
     axis 2.2557e-015 90 90   XYZ
    dof rx
    limits (0.0 90.0)
  end
  begin
     id 23
     name lthumb
     direction 0.707107 -6.34888e-011 0.707107   
     length 0.650935   
     axis -90 45 2.85299e-015   XYZ
    dof rx rz
    limits (-45.0 45.0)
           (-45.0 45.0)
  end
  begin
     id 24 
     name rclavicle
     direction -0.96165 0.268562 -0.0557131   
     length 4.05446  
     axis 0 0 0   XYZ 
    dof ry rz
    limits (-10.0 20.0)
           (-20.0 0.0)
  end
  begin
     id 25 
     name rhumerus
     direction -1 -4.48957e-011 -3.36329e-027  
     length 5.20357   
     axis 180 30 90   XYZ
    dof rx ry rz
    limits (-90.0 60.0)
           (-90.0 90.0)
           (-90.0 90.0)
  end
  begin
     id 26 
     name rradius
     direction -1 -4.48974e-011 4.51441e-027   
     length 3.64937   
     axis 180 30 90   XYZ
    dof rx
    limits (-10.0 170.0)
  end
  begin
     id 27 
     name rwrist
     direction -1 -4.4896e-011 -8.83775e-028   
     length 1.82468   
     axis 5.52448e-016 -90 -90   XYZ
    dof ry
    limits (-180.0 0.0)
  end
  begin
     id 28
     name rhand
     direction -1 -4.48996e-011 -1.76755e-027   
     length 0.617996   
     axis 1.12785e-015 -90 -90   XYZ
    dof rx rz
    limits (-90.0 90.0)
           (-45.0 45.0)
  end
  begin
     id 29
     name rfingers
     direction -1 -4.48957e-011 -3.5351e-027   
     length 0.498244   
     axis 2.2557e-015 -90 -90   XYZ
    dof rx
    limits (0.0 90.0)
  end
  begin
     id 30
     name rthumb
     direction -0.707107 -6.34931e-011 0.707107   
     length 0.715382   
     axis -90 -45 -2.85299e-015   XYZ
    dof rx rz
    limits (-45.0 45.0)
           (-45.0 45.0)
  end
:hierarchy
  begin
    root lhipjoint rhipjoint lowerback
    lhipjoint lfemur
    lfemur ltibia
    ltibia lfoot
    lfoot ltoes
    rhipjoint rfemur
    rfemur rtibia
    rtibia rfoot
    rfoot rtoes
    lowerback upperback
    upperback thorax
    thorax lowerneck lclavicle rclavicle
    lowerneck upperneck
    upperneck head
    lclavicle lhumerus
    lhumerus lradius
    lradius lwrist
    lwrist lhand lthumb
    lhand lfingers
    rclavicle rhumerus
    rhumerus rradius
    rradius rwrist
    rwrist rhand rthumb
    rhand rfingers
  end

#!OML:ASF H:\ManfredETheater\Project 1\Capture day 2\Session 1\Male1.ASF
:FULLY-SPECIFIED
:DEGREES
66
root 1.43278 17.9672 12.2545 -5.27265 2.90437 -5.70978
lowerback 8.47381 1.5334 4.10179
upperback -1.73468 2.64666 2.36381
thorax -6.51206 1.19133 -0.193813
lowerneck -21.2451 -2.40638 -4.40816
upperneck 20.7165 -1.79272 -0.404218
head 10.169 -1.23085 0.317202
rclavicle 1.12438e-015 7.85199e-015
rhumerus -25.4188 5.70867 -79.174
rradius 78.0528
rwrist 4.49299
rhand -35.513 1.3458
rfingers 7.12502
rthumb -8.63983 -28.4574
lclavicle 1.12438e-015 7.85199e-015
lhumerus -54.4438 0.998575 82.4195
lradius 53.5619
lwrist 1.57258
lhand -27.7149 -8.28601
lfingers 7.12502
lthumb -1.1106 21.6908
rfemur -14.1963 -0.894537 29.092
rtibia 36.8075
rfoot -6.01753 1.23594
rtoes 9.3942
lfemur -19.1442 -2.28079 -16.2273
ltibia 36.4348
lfoot -2.85106 -5.76913
ltoes 1.89845
67
root 1.44802 18.0004 12.4148 -4.71503 2.69854 -5.51724
lowerback 8.0602 1.50619 3.95649
upperback -1.86333 2.57256 2.31323
thorax -6.4175 1.16054 -0.144705
lowerneck -21.4442 -2.30468 -4.2944
upperneck 20.7511 -1.66753 -0.442821
head 10.2134 -1.1694 0.301542
rclavicle 3.39363e-014 -1.19271e-015
rhumerus -25.4583 5.57402 -79.7045
rradius 78.1943
rwrist 4.34269
rhand -35.5784 1.3925
rfingers 7.12502
rthumb -8.70293 -28.4081
lclavicle 3.39363e-014 -1.19271e-015
lhumerus -54.8046 0.970569 82.1501
lradius 52.6785
lwrist 1.08447
lhand -27.341 -8.47712
lfingers 7.12502
lthumb -0.749462 21.5013
rfemur -14.0205 -0.615201 28.9105
rtibia 36.5287
rfoot -6.29332 1.17917
rtoes 9.09344
lfemur -18.8848 -2.0287 -16.4529
ltibia 36.0702
lfoot -3.31034 -5.61614
ltoes 2.08062
68
root 1.46673 18.0295 12.5769 -4.23419 2.41247 -5.40847
lowerback 7.67184 1.47996 3.93514
upperback -1.98454 2.51576 2.28112
thorax -6.32461 1.13377 -0.148863
lowerneck -21.551 -2.17282 -4.15125
upperneck 20.797 -1.50713 -0.514225
head 10.2441 -1.09362 0.275649
rclavicle -2.9445e-015 -2.11706e-014
rhumerus -25.6712 5.30705 -80.2927
rradius 78.3572
rwrist 4.50572
rhand -35.4495 1.49369
rfingers 7.12502
rthumb -8.57854 -28.312
lclavicle -2.9445e-015 -2.11706e-014
lhumerus -55.2903 0.91791 81.8745
lradius 51.9746
lwrist 0.627535
lhand -27.1672 -9.07162
lfingers 7.12502
lthumb -0.581588 20.9073
rfemur -13.7572 -0.370227 28.8077
rtibia 36.2561
rfoot -6.54104 1.21639
rtoes 8.94713
lfemur -18.5577 -1.78333 -16.5883
ltibia 35.7574
lfoot -3.77983 -5.41191
ltoes 2.36609
69
root 1.48276 18.0553 12.7303 -3.7095 2.28978 -5.29492
lowerback 7.27663 1.39531 3.87995
upperback -2.09723 2.37694 2.24577
thorax -6.22206 1.06809 -0.127635
lowerneck -21.6418 -2.02526 -3.96321
upperneck 20.7396 -1.34175 -0.588016
head 10.2342 -1.01091 0.24294
rclavicle 1.81764e-014 1.71949e-014
rhumerus -25.8146 5.14592 -80.8701
rradius 78.462
rwrist 4.6633
rhand -35.4819 1.562
rfingers 7.12502
rthumb -8.60985 -28.2424
lclavicle 1.81764e-014 1.71949e-014
lhumerus -55.6246 0.883447 81.6457
lradius 51.2595
lwrist 0.204502
lhand -27.1276 -9.19059
lfingers 7.12502
lthumb -0.543315 20.7885
rfemur -13.5949 -0.235766 28.6816
rtibia 35.9914
rfoot -6.82114 1.21093
rtoes 9.04396
lfemur -18.3616 -1.65311 -16.7305
ltibia 35.4965
lfoot -4.29838 -5.32652
ltoes 2.7598
70
root 1.50071 18.0738 12.8804 -3.26804 2.15632 -5.29886
lowerback 6.99202 1.33971 4.00497
upperback -2.15658 2.30064 2.25044
thorax -6.11982 1.02734 -0.176162
lowerneck -21.8529 -1.94904 -3.91922
upperneck 20.7304 -1.22618 -0.640804
head 10.2668 -0.960965 0.232672
rclavicle 5.29264e-015 5.66536e-015
rhumerus -25.9367 4.88645 -81.3296
rradius 78.5586
rwrist 4.71011
rhand -35.5984 1.59207
rfingers 7.12502
rthumb -8.72231 -28.2077
lclavicle 5.29264e-015 5.66536e-015
lhumerus -55.9893 0.622132 81.6528
lradius 50.8828
lwrist -0.00200332
lhand -27.1121 -9.10526
lfingers 7.12502
lthumb -0.528379 20.8738
rfemur -13.3477 -0.207323 28.6717
rtibia 35.7209
rfoot -7.14394 1.29762
rtoes 8.90867
lfemur -18.115 -1.59761 -16.738
ltibia 35.3024
lfoot -4.91735 -5.24651
ltoes 2.89743
71
root 1.51578 18.0872 13.025 -2.80035 2.00256 -5.39472
lowerback 6.74526 1.27556 4.16594
upperback -2.26653 2.22144 2.27629
thorax -6.09289 0.982379 -0.224248
lowerneck -21.9874 -1.83914 -3.8138
upperneck 20.7235 -1.09289 -0.677002
head 10.2854 -0.895851 0.22167
rclavicle -1.70582e-014 -3.22031e-014
rhumerus -26.1708 4.6755 -81.8532
rradius 78.6486
rwrist 4.68645
rhand -35.7517 1.60432
rfingers 7.12502
rthumb -8.87022 -28.1892
lclavicle -1.70582e-014 -3.22031e-014
lhumerus -56.2428 0.498658 81.5428
lradius 50.379
lwrist -0.25318
lhand -26.852 -8.86306
lfingers 7.12502
lthumb -0.27719 21.1165
rfemur -13.1612 -0.137214 28.77
rtibia 35.4622
rfoot -7.50732 1.37592
rtoes 8.69459
lfemur -17.9412 -1.63319 -16.6165
ltibia 35.1488
lfoot -5.55333 -5.1199
ltoes 2.9288
72
root 1.53056 18.0972 13.1665 -2.35887 1.91241 -5.54732
lowerback 6.45225 1.19893 4.35956
upperback -2.31454 2.12451 2.35037
thorax -5.97586 0.930704 -0.237007
lowerneck -22.0553 -1.72462 -3.68806
upperneck 20.6039 -0.944731 -0.794031
head 10.2506 -0.830766 0.181742
rclavicle 4.52235e-015 -1.53064e-014
rhumerus -26.3587 4.45287 -82.2896
rradius 78.7301
rwrist 4.72976
rhand -35.8823 1.62259
rfingers 7.12502
rthumb -8.99622 -28.1656
lclavicle 4.52235e-015 -1.53064e-014
lhumerus -56.2517 0.53012 81.4313
lradius 49.7239
lwrist -0.498697
lhand -26.7458 -8.8524
lfingers 7.12502
lthumb -0.174561 21.1273
rfemur -12.959 -0.138783 28.9149
rtibia 35.1991
rfoot -7.87631 1.49739
rtoes 8.58254
lfemur -17.784 -1.74561 -16.4357
ltibia 35.0406
lfoot -6.22877 -4.99829
ltoes 2.91831
73
root 1.54793 18.1037 13.3105 -1.98662 1.80732 -5.5875
lowerback 6.21487 1.16382 4.49194
upperback -2.32064 2.0757 2.3844
thorax -5.84535 0.904921 -0.264344
lowerneck -22.2639 -1.68853 -3.69549
upperneck 20.5878 -0.871927 -0.833444
head 10.2818 -0.803078 0.178535
rclavicle -3.05631e-015 3.89618e-014
rhumerus -26.5037 4.1882 -82.632
rradius 78.7431
rwrist 4.76708
rhand -36.0154 1.54265
rfingers 7.12502
rthumb -9.12463 -28.24
lclavicle -3.05631e-015 3.89618e-014
lhumerus -56.1299 0.549086 81.3756
lradius 49.0647
lwrist -0.685643
lhand -26.6751 -8.66665
lfingers 7.12502
lthumb -0.10632 21.3131
rfemur -12.6861 -0.187744 28.9037
rtibia 34.9652
rfoot -8.2923 1.72028
rtoes 8.45261
lfemur -17.5247 -1.82925 -16.409
ltibia 34.9314
lfoot -6.94059 -4.85104
ltoes 2.98548
74
root 1.56499 18.1076 13.4502 -1.60785 1.70938 -5.6185
lowerback 6.00062 1.09947 4.56831
upperback -2.38147 1.98695 2.42178
thorax -5.78934 0.85964 -0.253949
lowerneck -22.1688 -1.57908 -3.57043
upperneck 20.4202 -0.752274 -0.902632
head 10.201 -0.744178 0.15279
rclavicle -1.72694e-015 -2.08724e-014
rhumerus -26.7864 4.06337 -83.0253
rradius 78.7379
rwrist 4.72294
rhand -36.1584 1.38697
rfingers 7.12502
rthumb -9.26264 -28.3896
lclavicle -1.72694e-015 -2.08724e-014
lhumerus -56.0738 0.656169 81.267
lradius 48.4696
lwrist -0.838972
lhand -26.6187 -8.53203
lfingers 7.12502
lthumb -0.0517722 21.4477
rfemur -12.442 -0.237106 28.8748
rtibia 34.7471
rfoot -8.71898 1.9703
rtoes 8.41105
lfemur -17.3028 -1.82917 -16.4051
ltibia 34.8393
lfoot -7.60328 -4.73819
ltoes 3.20198
75
root 1.5836 18.1098 13.5871 -1.26137 1.63269 -5.59301
lowerback 5.8048 1.05266 4.6018
upperback -2.38868 1.91635 2.46079
thorax -5.68795 0.82635 -0.220394
lowerneck -22.2004 -1.49939 -3.53509
upperneck 20.3049 -0.640544 -0.955925
head 10.1633 -0.695079 0.145103
rclavicle -7.4917e-015 1.98785e-015
rhumerus -26.9881 3.90635 -83.3191
rradius 78.6675
rwrist 4.73072
rhand -36.288 1.20449
rfingers 7.12502
rthumb -9.38769 -28.5665
lclavicle -7.4917e-015 1.98785e-015
lhumerus -55.8431 0.758078 81.2217
lradius 47.8408
lwrist -0.956717
lhand -26.4712 -8.56432
lfingers 7.12502
lthumb 0.0906443 21.4154
rfemur -12.1763 -0.3218 28.7571
rtibia 34.5574
rfoot -9.16798 2.2951
rtoes 8.76347
lfemur -17.0498 -1.78427 -16.4827
ltibia 34.7331
lfoot -8.27442 -4.6614
ltoes 3.65372
76
root 1.60145 18.1069 13.7184 -0.904845 1.53884 -5.62545
lowerback 5.66914 1.04138 4.70025
upperback -2.38768 1.90245 2.51084
thorax -5.60893 0.818493 -0.218848
lowerneck -22.3071 -1.46198 -3.47214
upperneck 20.1995 -0.578735 -1.06755
head 10.1435 -0.674307 0.104142
rclavicle 5.61567e-015 1.27222e-014
rhumerus -27.2016 3.68392 -83.5565
rradius 78.6337
rwrist 4.68456
rhand -36.3057 1.191
rfingers 7.12502
rthumb -9.40473 -28.5792
lclavicle 5.61567e-015 1.27222e-014
lhumerus -55.4291 0.939842 81.1487
lradius 47.1624
lwrist -1.22175
lhand -26.2983 -8.3282
lfingers 7.12502
lthumb 0.257597 21.6514
rfemur -11.9783 -0.378227 28.715
rtibia 34.4007
rfoot -9.61828 2.57047
rtoes 8.71297
lfemur -16.8485 -1.75468 -16.4932
ltibia 34.6516
lfoot -8.95962 -4.53842
ltoes 4.17818
77
root 1.61821 18.1018 13.8527 -0.64244 1.67962 -5.59846
lowerback 5.57484 0.921339 4.69336
upperback -2.40816 1.73845 2.55389
thorax -5.58424 0.738959 -0.151878
lowerneck -22.2485 -1.37617 -3.4335
upperneck 20.1003 -0.476433 -1.07141
head 10.0956 -0.62304 0.112542
rclavicle -3.06874e-015 2.72335e-014
rhumerus -27.5135 3.63814 -83.8262
rradius 78.5606
rwrist 4.61427
rhand -36.3017 1.10328
rfingers 7.12502
rthumb -9.40087 -28.6671
lclavicle -3.06874e-015 2.72335e-014
lhumerus -55.1537 1.16053 81.0459
lradius 46.623
lwrist -1.36626
lhand -26.1279 -8.23107
lfingers 7.12502
lthumb 0.422195 21.7483
rfemur -11.6723 -0.512788 28.6119
rtibia 34.2728
rfoot -10.1616 2.72215
rtoes 8.83539
lfemur -16.567 -1.7914 -16.5713
ltibia 34.5659
lfoot -9.67628 -4.58903
ltoes 4.74454
78
root 1.63505 18.0941 13.9747 -0.264436 1.40075 -5.54925
lowerback 5.50492 0.989881 4.6612
upperback -2.42571 1.8261 2.60389
thorax -5.56223 0.784665 -0.0894295
lowerneck -22.251 -1.3495 -3.41457
upperneck 19.959 -0.430101 -1.14507
head 10.0447 -0.607256 0.090721
rclavicle 1.66482e-015 7.55382e-015
rhumerus -27.7515 3.53047 -83.9806
rradius 78.4738
rwrist 4.56535
rhand -36.352 1.10665
rfingers 7.12502
rthumb -9.44947 -28.6615
lclavicle 1.66482e-015 7.55382e-015
lhumerus -54.7152 1.29644 81.0783
lradius 46.1279
lwrist -1.42928
lhand -25.8937 -8.14884
lfingers 7.12502
lthumb 0.648369 21.8299
rfemur -11.5529 -0.453894 28.47
rtibia 34.1576
rfoot -10.6164 3.08092
rtoes 8.65205
lfemur -16.4068 -1.69669 -16.6702
ltibia 34.5173
lfoot -10.3887 -4.36546
ltoes 5.54398
79
root 1.65097 18.0842 14.099 0.0570788 1.33858 -5.49722
lowerback 5.47224 1.00366 4.63108
upperback -2.43726 1.84286 2.6481
thorax -5.55752 0.794918 -0.027693
lowerneck -22.3273 -1.34147 -3.48044
upperneck 19.9169 -0.399007 -1.12424
head 10.0434 -0.595134 0.113234
rclavicle 1.07468e-014 2.38542e-014
rhumerus -28.0463 3.37595 -84.1113
rradius 78.3872
rwrist 4.53835
rhand -36.3496 1.02421
rfingers 7.12502
rthumb -9.44715 -28.744
lclavicle 1.07468e-014 2.38542e-014
lhumerus -54.1839 1.52392 81.0727
lradius 45.5712
lwrist -1.63914
lhand -25.8524 -8.06457
lfingers 7.12502
lthumb 0.68826 21.9141
rfemur -11.3647 -0.431921 28.3392
rtibia 34.0728
rfoot -11.1659 3.2645
rtoes 8.74863
lfemur -16.2043 -1.67721 -16.7819
ltibia 34.4491
lfoot -11.142 -4.23882
ltoes 5.88575
80
root 1.66356 18.0716 14.22 0.364617 1.18685 -5.60871
lowerback 5.44804 1.00508 4.66324
upperback -2.46046 1.85329 2.76976
thorax -5.57137 0.800863 0.0803935
lowerneck -22.245 -1.27265 -3.35026
upperneck 19.7794 -0.309913 -1.30378
head 9.97792 -0.563654 0.0426214
rclavicle 1.52816e-015 1.98785e-015
rhumerus -28.3271 3.4185 -84.2709
rradius 78.2478
rwrist 4.5356
rhand -36.367 0.77272
rfingers 7.12502
rthumb -9.46388 -28.9948
lclavicle 1.52816e-015 1.98785e-015
lhumerus -53.7301 1.84477 81.0301
lradius 45.1434
lwrist -1.84532
lhand -25.7729 -7.97346
lfingers 7.12502
lthumb 0.765115 22.0049
rfemur -11.1941 -0.266754 28.4192
rtibia 33.997
rfoot -11.7073 3.3416
rtoes 8.61657
lfemur -16.0241 -1.64803 -16.6931
ltibia 34.4098
lfoot -11.8299 -4.09353
ltoes 6.30613
